<svg viewBox="0 0 512 512" fill="none" stroke-linecap="square" stroke-miterlimit="10" xmlns="http://www.w3.org/2000/svg"><clipPath id="a"><path d="M0 0h512v512H0V0z"/></clipPath><g clip-path="url(#a)"><path fill="none" d="M0 0h512v512H0z"/><path fill="#c235e9" d="M0 256C0 114.615 114.615 0 256 0a256 256 0 0 1 256 256c0 141.385-114.615 256-256 256S0 397.385 0 256zm71.583 0c0 101.85 82.566 184.417 184.417 184.417 101.85 0 184.417-82.566 184.417-184.417 0-101.85-82.566-184.417-184.417-184.417-101.85 0-184.417 82.566-184.417 184.417z" fill-rule="evenodd"/><path fill="#c235e9" d="m136.759 256.575 45.417-60.598L317.64 297.52l-45.417 60.598z" fill-rule="evenodd"/><path fill="#c235e9" d="m445.289 4.774 60.504 45.544-231.56 307.81-60.503-45.543z" fill-rule="evenodd"/></g></svg>
